<svg width="360" height="109" viewBox="0 0 360 109" fill="none" xmlns="http://www.w3.org/2000/svg">
<path d="M165.218 0.774485C159.19 2.10788 147.957 8.37449 148.641 10.1079C149.326 11.8412 146.861 18.9078 143.436 25.1745C142.203 27.4412 141.518 34.2412 141.381 45.8412C141.107 60.5078 141.518 63.9745 143.709 68.3745C146.45 73.7078 148.779 73.1745 147.408 67.5745C146.724 65.1745 147.408 63.9745 150.834 62.1078C153.025 60.7745 155.628 60.1078 156.313 60.5078C157.135 60.9078 157.683 60.7745 157.683 59.9745C157.683 59.3078 160.286 58.3745 163.574 57.8412C171.383 56.5078 174.808 54.6412 169.328 54.5078C163.848 54.5078 151.381 57.8412 147.408 60.3745C145.628 61.5745 143.709 62.5078 143.298 62.5078C142.34 62.5078 142.476 37.8412 143.436 35.3078C144.12 33.4412 144.531 33.4412 147.135 35.1745C148.779 36.2412 150.696 37.1745 151.518 37.1745C152.203 37.1745 150.97 35.9745 148.641 34.6412C139.599 29.3078 141.381 24.9078 150.97 29.0412C154.258 30.5078 156.177 31.7078 155.355 31.7078C153.436 31.8412 152.889 35.8412 154.806 35.8412C155.491 35.8412 156.724 34.9078 157.683 33.8412C158.643 32.7745 159.053 31.8412 158.643 31.8412C158.232 31.8412 158.779 28.7745 159.875 25.0412C162.341 16.9078 161.656 14.7745 159.053 22.5078C157.41 27.4412 154.944 29.7078 154.944 26.3745C154.944 25.7078 154.258 25.4412 153.573 25.8412C151.245 27.3078 148.23 23.9745 148.779 20.7745C149.19 19.1745 150.696 16.7745 152.34 15.4412C153.984 14.2412 154.533 13.1745 153.711 13.1745C147.546 13.1745 159.875 5.17449 167.136 4.50789C170.15 4.24119 173.3 3.70788 173.986 3.30788C174.671 2.77448 175.63 3.04118 176.177 3.84118C176.588 4.50788 178.781 5.17448 180.836 5.17448C183.027 5.17448 186.726 5.97448 189.055 6.90789L193.302 8.64118L189.192 11.5745C184.26 15.1745 183.849 18.9078 188.37 20.9078C191.384 22.2412 191.658 22.9078 190.562 26.5078C189.877 28.7745 189.192 31.0412 188.918 31.5745C188.37 32.6412 172.205 32.6412 167.41 31.4412C163.026 30.2412 162.752 29.8412 163.711 25.8412C164.533 22.6412 164.807 22.5078 167.684 24.5078C171.52 27.0412 174.122 27.0412 177.959 24.1078C181.247 21.7078 183.027 15.8412 181.658 11.9745C181.247 10.6412 178.781 8.90788 176.177 8.24118C172.067 7.04118 170.834 7.17449 167.958 9.44118C166.04 10.9078 164.67 13.3078 164.67 14.9078C164.807 17.1745 164.944 17.3078 165.492 15.4412C165.766 14.2412 166.725 13.1745 167.41 13.1745C168.232 13.1745 168.506 12.6412 167.958 11.9745C166.999 10.2412 172.067 8.77448 175.355 9.84118C176.726 10.2412 178.232 11.8412 178.643 13.4412C179.603 16.5078 177.548 21.1745 175.355 21.1745C174.533 21.1745 174.26 21.7078 174.808 22.3745C176.315 24.7745 168.232 22.9078 166.451 20.5078C164.259 17.5745 164.396 17.4412 161.656 25.5745L159.327 31.8412L166.451 33.7078C170.287 34.7745 177.959 35.8412 183.438 36.1078L193.576 36.6412L192.754 33.0412C192.343 30.6412 192.754 29.1745 193.987 28.6412C196.59 27.7078 197.823 29.9745 196.864 33.8412C196.042 37.0412 189.74 39.5745 178.232 41.5745C176.315 41.9745 177.821 42.1078 181.383 42.1078C185.082 42.1078 188.233 41.5745 188.644 40.9078C190.151 38.5078 194.398 39.8412 194.398 42.7745C194.535 44.5078 195.768 51.1745 197.137 57.8412C199.741 69.5745 199.741 69.7078 200.7 64.5078C201.247 61.4412 200.974 55.1745 200.152 50.5078C197.686 37.0412 197.686 36.2412 198.645 34.9078C200.425 32.1078 205.084 30.5078 206.728 32.1078C209.467 34.7745 208.508 37.0412 203.988 39.1745L199.467 41.0412L203.577 40.2412C205.906 39.8412 208.645 38.6412 209.878 37.7078C213.44 34.6412 214.126 35.5745 211.249 39.7078C207.686 44.5078 207.686 45.9745 210.974 47.8412C215.632 50.1078 216.454 49.3078 216.317 43.1745C216.317 39.3078 217.003 36.2412 218.509 34.6412C219.742 33.4412 220.701 31.1745 220.701 29.7078C220.701 28.3745 222.619 23.8412 224.948 19.8412C228.783 13.0412 228.921 12.3745 226.592 10.9078C225.359 9.97449 222.893 9.17448 221.112 9.17448C218.509 9.17448 217.961 9.84118 217.961 13.4412C217.824 19.9745 215.632 28.1078 213.577 29.3078C212.618 29.9745 210.016 30.3745 207.686 30.2412C205.495 30.1078 202.344 30.5078 200.974 31.1745C198.508 32.2412 198.37 31.7078 199.056 22.6412L199.741 13.0412L193.85 7.97449C186.041 1.30789 175.219 -1.49212 165.218 0.774485ZM195.083 14.1078C197.686 17.0412 196.453 25.3078 193.302 26.2412C191.521 26.6412 191.521 26.5078 193.165 25.3078C196.042 23.4412 193.028 17.1745 189.192 17.1745C185.768 17.1745 185.63 15.1745 188.918 13.3078C192.069 11.4412 192.617 11.4412 195.083 14.1078ZM180.972 19.0412C180.972 19.3078 179.876 20.3745 178.643 21.3078C176.452 23.0412 176.315 22.9078 178.096 20.7745C179.876 18.6412 180.972 17.9745 180.972 19.0412ZM214.673 34.1078C213.304 35.4412 212.071 33.4412 213.304 31.7078C214.126 30.2412 214.399 30.2412 214.948 31.7078C215.221 32.6412 215.084 33.7078 214.673 34.1078Z" fill="#804000"/>
<path d="M319.338 2.9078C315.228 3.5745 311.667 4.2412 311.393 4.5078C311.118 4.7745 310.571 21.1745 310.16 40.9078L309.474 76.9079L315.777 76.7745L322.078 76.5079L322.215 67.1745C322.215 61.9745 322.764 54.6412 323.311 50.7745C323.859 47.0412 323.859 43.8412 323.175 43.8412C321.393 43.8412 321.942 38.7745 323.859 37.5745C324.681 37.0412 326.736 36.5078 328.38 36.5078C330.572 36.3745 331.12 37.0412 330.572 39.4412C330.298 41.1745 329.476 42.5078 328.791 42.5078C328.106 42.5078 327.969 41.7078 328.38 40.6412C329.202 38.5078 326.873 36.6412 324.819 37.8412C322.078 39.4412 326.051 43.8412 330.298 43.8412C333.997 43.8412 335.093 45.0412 334.544 48.2412C334.408 48.9078 334.956 49.0412 335.641 48.6412C336.326 48.1078 337.421 48.5078 337.97 49.3078C338.518 50.2412 338.381 50.5078 337.559 50.1078C336.737 49.5745 335.777 50.6412 335.504 52.5078C334.682 56.1078 336.737 57.0412 338.107 53.7078C339.476 50.3745 341.258 54.2412 341.258 60.7745C341.258 63.8412 341.806 66.6412 342.491 67.1745C343.313 67.5745 343.586 65.9745 343.45 63.5745C343.175 61.1745 343.313 60.2412 343.586 61.4412C343.861 62.7745 344.819 63.8412 345.641 63.8412C346.463 63.8412 346.737 64.2412 346.326 64.7745C345.779 65.1745 346.463 66.3745 347.834 67.3078C350.025 68.9078 350.025 69.0412 347.696 69.8412C346.19 70.5079 344.272 69.9745 342.764 68.6412C341.395 67.4412 340.025 66.9078 339.476 67.3078C339.065 67.7078 337.97 65.7078 337.285 62.7745C336.463 59.8412 334.682 57.0412 333.449 56.6412C331.805 55.9745 331.531 55.4412 332.764 54.2412C335.093 51.9745 334.819 49.1745 332.353 49.1745C331.257 49.1745 330.298 49.8412 330.298 50.6412C330.298 51.3078 330.983 51.5745 331.668 51.1745C332.49 50.7745 333.038 51.0412 333.038 51.7078C333.038 54.1078 330.572 53.4412 329.065 50.6412C327.421 47.7078 328.38 46.3745 331.394 47.4412C333.449 47.9745 333.449 47.8412 331.668 46.6412C329.065 44.7745 324.819 44.7745 324.819 46.5078C324.819 48.6412 331.531 61.0412 336.052 67.4412L340.025 73.1745H349.751H359.478L353.724 67.1745C348.518 61.7078 333.038 39.8412 333.038 37.9745C333.038 37.5745 335.23 37.1745 337.832 37.1745C343.724 37.1745 352.902 32.9078 354.957 29.3078C357.149 25.0412 356.601 15.5745 353.724 11.0412C349.203 3.8412 334.134 0.374501 319.338 2.9078ZM324.133 7.0412C320.571 7.9745 317.694 10.1078 315.639 13.0412C313.859 15.5745 312.489 16.6412 312.489 15.5745C312.489 14.6412 313.173 13.0412 314.133 12.1078C315.092 11.1745 315.228 10.5078 314.544 10.5078C313.995 10.5078 314.406 9.4412 315.639 8.1078C317.01 6.7745 320.023 5.7078 323.722 5.5745L329.613 5.4412L324.133 7.0412ZM343.997 7.1745C348.929 9.5745 352.217 14.1078 352.217 18.2412C352.217 19.9745 352.766 21.0412 353.45 20.6412C355.779 19.1745 351.806 29.1745 349.067 31.4412C346.326 33.8412 346.326 33.8412 348.656 30.3745C349.889 28.5078 350.573 25.8412 350.025 24.6412C349.203 22.6412 349.067 22.6412 347.285 24.7745C344.957 27.7078 344.819 26.3745 347.012 21.8412C349.203 17.1745 346.601 12.2412 340.847 9.8412C337.421 8.3745 337.148 7.8412 339.203 7.7078C340.709 7.5745 339.887 7.0412 337.148 6.5078C332.764 5.5745 332.627 5.5745 336.188 5.3078C338.243 5.3078 341.806 6.1078 343.997 7.1745ZM319.887 12.5078C318.379 14.7745 317.968 17.4412 318.516 21.4412C318.927 24.6412 319.201 27.5745 319.201 28.1078C319.338 28.6412 320.709 29.3078 322.489 29.5745L325.503 30.1078L322.353 30.3745C316.188 30.6412 313.859 17.3078 319.065 11.4412C322.078 8.1078 322.489 8.6412 319.887 12.5078ZM338.243 11.3078C340.436 12.7745 341.258 14.6412 341.258 18.2412C341.258 24.2412 340.162 25.9745 335.641 27.5745C325.092 31.5745 315.502 21.0412 322.078 12.7745C325.503 8.5078 333.175 7.8412 338.243 11.3078ZM345.779 19.1745C345.368 20.3745 344.682 21.0412 344.408 20.6412C343.997 20.2412 344.135 19.4412 344.682 18.6412C345.915 16.5078 346.737 16.9078 345.779 19.1745ZM347.559 26.9078C348.518 25.5745 349.478 25.1745 349.478 26.1078C349.478 26.9078 347.97 28.7745 346.052 30.2412C343.586 32.1078 343.175 33.1745 344.272 33.7078C345.23 34.1078 344.272 33.9745 342.08 33.5745C339.887 33.1745 338.381 33.3078 338.929 33.9745C339.34 34.6412 336.188 35.0412 331.805 34.7745C325.503 34.3745 323.586 34.7745 321.531 36.9078C319.612 39.0412 319.476 40.2412 320.571 42.3745C321.393 43.8412 322.078 46.3745 321.942 48.1078C321.942 50.3745 321.393 49.7078 320.023 45.8412C318.379 41.4412 318.243 41.1745 318.79 44.7745C319.201 47.0412 318.79 49.3078 317.968 49.8412C316.872 50.5078 316.872 51.1745 317.968 52.5078C319.749 54.6412 317.557 59.8412 314.955 59.8412C314.133 59.8412 313.859 60.2412 314.27 60.7745C314.817 61.1745 316.599 60.5078 318.105 59.0412C320.16 57.3078 320.845 57.1745 320.434 58.3745C319.201 62.2412 315.503 63.3078 312.9 60.6412C311.529 59.3078 311.256 58.5078 312.078 59.0412C313.448 59.7078 313.584 58.9078 312.9 55.5745L312.078 51.1745L314.955 53.7078C316.599 55.1745 317.968 55.5745 317.968 54.7745C317.968 53.9745 316.599 52.3745 314.955 51.3078L311.94 49.1745H314.955C318.654 49.1745 318.654 48.3745 315.366 43.0412C313.995 40.7745 313.173 38.3745 313.722 37.7078C315.092 35.8412 318.243 35.5745 317.557 37.4412C317.283 38.3745 316.188 39.0412 315.366 38.7745C314.406 38.6412 314.133 39.0412 314.681 39.9745C315.366 41.1745 316.461 40.6412 318.243 38.6412C319.612 36.9078 320.298 35.0412 320.023 34.3745C319.201 33.1745 321.531 32.5078 331.668 31.1745C338.107 30.3745 342.491 27.4412 342.764 23.9745C342.764 22.7745 343.45 23.5745 344.272 25.5745C345.504 29.0412 345.779 29.1745 347.559 26.9078ZM317.283 34.2412C316.324 36.7745 314.544 35.0412 313.173 30.5078C312.489 27.8412 312.626 27.5745 313.859 29.1745C315.092 30.7745 315.366 30.3745 314.681 27.1745L313.995 23.1745L316.05 27.7078C317.146 30.1078 317.694 33.1745 317.283 34.2412ZM327.558 39.8412C327.558 40.5078 327.284 41.1745 327.01 41.1745C326.599 41.1745 325.914 40.5078 325.503 39.8412C325.092 39.0412 325.366 38.5078 326.051 38.5078C326.873 38.5078 327.558 39.0412 327.558 39.8412ZM314.133 46.7745C313.173 47.7078 312.489 47.8412 312.489 47.0412C312.489 45.1745 314.133 43.5745 315.092 44.5078C315.366 44.9078 314.955 45.9745 314.133 46.7745ZM313.584 65.8412C313.173 66.2412 312.351 65.5745 311.94 64.2412C311.118 62.3745 311.256 62.2412 312.626 63.4412C313.584 64.3745 313.995 65.4412 313.584 65.8412ZM320.298 67.8412C320.023 70.7745 319.338 73.5745 318.654 74.1079C318.105 74.7745 318.105 74.3745 318.654 73.3079C319.476 71.8412 319.201 71.5745 317.146 72.3745C312.626 74.1079 312.215 73.9745 311.667 70.5079C311.256 67.7078 311.393 67.5745 312.626 69.4412C313.311 70.7745 314.681 71.8412 315.639 71.8412C316.872 71.8412 316.872 71.5745 315.639 70.7745C314.544 70.1079 314.544 68.9078 316.05 66.5078L318.105 63.1745L317.283 66.9078C316.735 69.4412 317.01 70.3745 317.968 69.8412C318.654 69.4412 319.338 67.5745 319.338 65.7078C319.338 63.9745 319.612 62.5078 320.16 62.5078C320.571 62.5078 320.571 64.9078 320.298 67.8412Z" fill="#804000"/>
<path d="M344.27 9.97449C346.463 11.0412 348.38 13.4412 348.929 15.5745C349.34 17.5745 350.299 20.6412 350.984 22.5079L352.217 25.8412L351.532 22.5079C351.257 20.6412 350.846 18.1079 350.846 16.7745C350.846 13.9745 344.956 7.84119 342.353 7.84119C341.394 7.97449 342.216 8.77449 344.27 9.97449Z" fill="#804000"/>
<path d="M342.217 28.3744C341.806 29.441 339.34 30.9077 336.874 31.7077C334.408 32.3744 333.312 33.041 334.545 33.041C338.791 33.3077 345.23 29.841 344.134 27.9744C343.175 26.641 342.901 26.7744 342.217 28.3744Z" fill="#804000"/>
<path d="M313.859 55.8411C313.859 56.5078 314.544 57.1745 315.366 57.1745C316.05 57.1745 316.325 56.5078 315.914 55.8411C315.503 55.0411 314.817 54.5078 314.406 54.5078C314.133 54.5078 313.859 55.0411 313.859 55.8411Z" fill="#804000"/>
<path d="M5.61884 3.44121L0.823975 3.97451L1.23496 44.9078C1.37192 67.4412 1.91997 87.8412 2.33096 90.3742L3.01587 94.9082L14.2495 94.1082C31.511 93.0412 48.6353 85.0412 55.0741 75.0412C62.3349 63.5745 57.266 47.5745 43.7035 39.4412C37.6757 35.8412 37.1277 35.0412 39.1826 33.8412C48.9093 28.2412 51.3752 22.2412 47.2654 13.8412C43.9775 6.90781 36.0318 3.57451 21.5102 3.17451C15.3454 2.90781 8.22172 3.04121 5.61884 3.44121ZM33.4288 7.70781C35.4837 8.50781 39.0457 10.5078 41.3746 12.1078C45.2104 14.9078 45.6214 15.7078 44.9364 21.1745C44.2515 27.5745 39.1826 33.0412 33.7028 33.3078C31.3739 33.4412 31.3739 33.5745 33.4288 34.1078C34.6618 34.3745 35.7578 35.1745 35.7578 35.8412C35.7578 36.5078 33.9769 36.3745 31.6479 35.7078C29.456 34.9078 26.853 34.5078 25.8941 34.9078C24.9352 35.1745 26.853 36.2412 30.278 37.1745C39.7307 39.7078 46.0324 43.3078 50.6902 48.7745C56.855 56.1078 55.8961 56.7745 49.1834 49.7078C43.2925 43.4412 39.8676 43.7078 43.4295 50.3745C46.4434 55.8412 45.6214 56.6412 42.1966 51.7078C40.2786 48.9078 37.5387 46.9078 35.0728 46.3745L30.9629 45.4412L34.7988 45.3078C37.4017 45.1745 38.3607 44.6412 37.6757 43.5745C37.1277 42.6412 37.2648 42.5078 38.3607 43.0412C39.1826 43.5745 39.5936 44.6412 39.1826 45.3078C38.6347 45.9745 38.9087 46.5078 39.5936 46.5078C40.4156 46.5078 41.2376 45.5745 41.7856 44.5078C42.8815 41.5745 24.7981 36.3745 20.8253 38.5078C19.1814 39.3078 17.9484 40.5078 17.9484 41.1745C17.9484 43.1745 20.4143 43.9745 21.5102 42.3745C22.0583 41.3078 21.9212 41.1745 20.9623 41.7078C20.0033 42.2412 19.3183 42.1078 19.3183 41.3078C19.3183 39.7078 24.3871 38.1078 26.1681 39.1745C27.949 40.2412 27.949 43.4412 26.1681 44.5078C25.4831 44.9078 25.2091 44.5078 25.6201 43.4412C26.0311 42.3745 25.7572 41.0412 24.9352 40.5078C24.1132 40.1078 23.4282 40.6412 23.4282 41.7078C23.4282 43.7078 21.7843 44.5078 18.7704 43.9745C18.2223 43.8412 16.9894 44.2412 16.0305 44.9078C15.2085 45.5745 12.8795 46.5078 10.9617 47.0412C8.90673 47.4412 6.98876 48.7745 6.44082 49.8412C5.48178 52.3745 8.35868 51.8412 10.8246 49.1745C12.4685 47.4412 12.6056 47.5745 11.6466 49.8412C11.0986 51.3078 10.6876 54.1078 10.6876 56.1078C10.6876 58.7745 10.2767 59.1745 9.04369 58.1078C8.08476 57.1745 7.67377 55.5745 8.08476 54.5078C8.63271 52.9078 8.35868 52.7745 6.8518 54.2412C5.34482 55.5745 5.34482 56.3745 6.8518 58.6412C8.22172 61.0412 8.22172 61.3078 6.71474 60.9078C3.9749 59.9745 3.70088 50.6412 6.30375 47.8412C8.08476 45.8412 8.22172 45.1745 6.71474 44.2412C4.79687 43.0412 4.11186 33.1745 5.89277 33.1745C6.57778 33.1745 6.44081 31.9745 5.61884 30.6412C3.70087 27.0412 3.83784 25.1745 6.30375 25.1745C8.22172 25.1745 8.22172 24.7745 6.30375 21.9745C3.01587 17.1745 4.11186 10.2412 8.35868 8.24121C10.2767 7.30781 10.9617 6.50781 10.0026 6.50781C9.04369 6.50781 6.8518 7.17451 5.20786 8.10781C2.46792 9.44121 2.33096 9.44121 3.9749 7.44121C5.48178 5.70781 8.08476 5.44121 17.6744 5.84121C24.2502 6.10781 31.2369 6.90781 33.4288 7.70781ZM35.7578 42.5078C35.7578 43.1745 34.5248 43.8412 33.1549 43.8412C31.6479 43.8412 30.004 43.1745 29.593 42.5078C29.045 41.7078 30.278 41.1745 32.1959 41.1745C34.1138 41.1745 35.7578 41.7078 35.7578 42.5078ZM36.7167 49.9745C41.3746 52.7745 45.3474 59.7078 45.3474 64.7745C45.3474 71.5745 40.4156 76.1078 31.9219 76.9078C23.0172 77.7078 18.7704 75.1745 15.0715 67.0412C12.7426 62.1078 12.6056 60.3745 13.8386 55.8412C15.7564 48.6412 19.7293 46.1078 27.4011 47.0412C30.8259 47.5745 34.9358 48.7745 36.7167 49.9745ZM46.7174 48.9078C47.8133 50.2412 49.5943 52.2412 50.5533 53.4412C53.8412 57.3078 53.9781 66.6412 50.9643 69.7078C49.4573 71.3078 48.0874 73.0412 47.8133 73.8412C47.5394 74.5078 46.7174 75.0412 45.8955 74.7745C45.0735 74.6412 43.0186 75.9745 41.2376 77.8412C38.7716 80.3745 36.5798 81.1742 31.7849 81.3082C26.1681 81.4412 25.8941 81.5742 29.593 82.5082L33.7028 83.4412L29.867 84.9082C24.6612 87.0412 24.5242 87.0412 25.0721 83.4412C25.3462 81.0412 26.5791 80.3745 31.7849 79.8412C36.8538 79.3078 39.4566 77.9745 45.2104 72.9078C52.7452 66.3745 52.7452 65.8412 47.5394 59.9745C45.8955 58.2412 45.4845 57.1745 46.4434 57.7078C48.9093 59.0412 48.4983 56.6412 45.3474 51.1745C42.4705 46.2412 43.2925 44.9078 46.7174 48.9078ZM55.8961 60.1078C55.4851 61.1745 55.0741 60.7745 55.0741 59.3078C54.9372 57.8412 55.3481 57.0412 55.7591 57.5745C56.1701 57.9745 56.3071 59.1745 55.8961 60.1078ZM10.6876 63.0412C10.6876 64.1078 9.7287 64.5078 8.22172 64.2412C6.98876 63.8412 5.48178 64.2412 5.0708 65.0412C3.42685 67.4412 6.71474 71.4412 10.8246 72.2412C13.0166 72.6412 16.8524 74.6412 19.1814 76.6412C22.7432 79.5745 23.5652 81.0412 23.0172 84.2412C22.4693 87.9742 22.7432 88.1082 26.7161 87.3082C33.4288 85.9742 45.4845 79.8412 44.5254 78.2412C43.8405 77.3078 44.2515 77.1745 45.2104 77.8412C46.3064 78.3745 48.6353 77.3078 51.2383 75.0412L55.6221 71.1745L51.1012 75.9745C41.2375 86.3742 15.7564 93.8412 7.67377 88.6412C5.20786 87.0412 4.24882 85.3082 4.24882 81.9742C4.24882 77.3078 5.89277 75.1745 10.4136 74.1078C12.8795 73.5745 12.8795 73.4412 10.1397 73.3078C6.44082 73.1745 2.46792 67.8412 3.70088 64.7745C4.38589 62.9078 5.89277 62.1078 9.86566 61.3078C10.2766 61.3078 10.6876 61.9745 10.6876 63.0412ZM7.53671 66.7745C6.8518 67.8412 7.26279 67.9745 8.76967 67.4412C10.0026 67.0412 11.3726 67.1745 11.7836 67.9745C12.3316 68.6412 11.6466 69.5745 10.4136 70.1078C9.04369 70.5078 7.53671 70.1078 6.8518 69.0412C5.20786 66.5078 5.34482 65.1745 7.12572 65.1745C7.81074 65.1745 8.08476 65.8412 7.53671 66.7745ZM10.4136 91.8412C12.1946 92.6412 12.4685 93.0412 11.0986 93.0412C10.0026 93.0412 8.08476 92.5082 6.98876 91.8412C4.52285 90.2412 6.71474 90.2412 10.4136 91.8412Z" fill="#804000"/>
<path d="M11.9207 9.44119C12.6057 10.3746 12.1947 10.6412 10.8247 10.1079C5.89283 8.37459 3.70094 16.6412 7.67384 22.1079C9.59171 24.7746 9.59171 25.1746 7.39982 26.5079C5.07086 27.9746 5.07086 27.9746 7.53678 27.3079C9.59171 26.6412 9.86573 27.0412 9.31778 29.0412C8.9068 30.6412 9.45475 31.9746 10.6877 32.3746C11.9207 32.9079 12.1947 32.6412 11.6466 31.7079C11.0987 30.7746 11.5097 30.3746 12.6057 30.7746C13.7016 31.1746 14.3866 32.2412 14.1125 33.1746C13.8386 34.2412 14.5235 34.5079 15.8936 33.9746C17.1265 33.5746 20.6883 33.1746 23.8393 33.1746C28.2231 33.1746 29.0451 32.7746 27.5381 31.7079C26.0311 30.7746 26.7162 30.6412 30.141 31.1746C33.7029 31.9746 34.5249 31.7079 34.1139 30.3746C33.7029 29.3079 34.2509 26.9079 35.3469 24.7746C36.8538 21.8412 36.8538 20.6412 35.4838 18.1079C34.5249 16.5079 33.8399 14.6412 33.7029 14.1079C33.7029 13.5746 32.744 12.5079 31.648 11.8412C28.7711 10.1079 31.237 10.2412 34.6618 11.9746C38.6347 14.1079 41.5116 21.5746 39.8677 25.8412C39.1827 27.7079 38.2238 29.1746 37.6758 29.1746C37.2648 29.1746 37.1278 28.2412 37.6758 27.1746C38.0868 26.1079 37.8128 25.1746 37.1278 25.1746C36.3058 25.1746 35.7578 26.3746 35.7578 27.8412C35.7578 29.3079 36.1688 30.5079 36.8538 30.5079C39.8677 30.3746 41.7857 27.3079 42.6076 21.3079C43.0186 17.7079 43.0186 14.9079 42.4706 15.1746C41.9226 15.5746 40.6897 14.7746 39.7307 13.5746C36.5798 9.97459 29.4561 7.84119 20.0034 7.84119C13.4276 7.84119 11.2356 8.24119 11.9207 9.44119ZM8.49581 14.6412C7.26285 17.5746 7.12579 17.5746 7.12579 15.0412C6.98883 13.5746 7.39981 11.8412 7.94776 11.4412C9.5917 9.84119 9.86573 11.4412 8.49581 14.6412ZM27.4012 12.5079C31.648 14.5079 33.0179 16.9079 33.0179 21.7079C33.0179 25.9746 28.7711 29.3079 22.1953 30.1079C17.5375 30.7746 16.3045 30.3746 13.2906 27.1746C3.8379 17.3079 14.7976 6.10789 27.4012 12.5079Z" fill="#804000"/>
<path d="M37.8132 22.5078C37.4022 23.1744 37.6762 23.8411 38.3613 23.8411C39.1832 23.8411 39.8681 23.1744 39.8681 22.5078C39.8681 21.7078 39.5942 21.1744 39.3202 21.1744C38.9092 21.1744 38.2242 21.7078 37.8132 22.5078Z" fill="#804000"/>
<path d="M9.45431 35.3078C12.8792 37.7078 13.2901 41.0411 10.8242 43.7078C9.31725 45.1745 9.72824 45.3078 12.4682 44.5078C16.578 43.3078 16.0301 43.8411 17.126 39.7078C17.811 36.6411 17.4 35.9745 14.6601 35.3078C12.8792 34.9078 10.2763 34.2411 8.7693 33.7078C6.85133 33.1745 6.9884 33.5745 9.45431 35.3078Z" fill="#804000"/>
<path d="M6.57826 38.5079C7.40023 39.4412 7.81121 41.0412 7.40023 41.9745C6.85228 43.3079 7.40023 43.5745 8.90721 43.0412C11.9211 41.8412 11.0991 37.9745 7.67425 37.4412C5.48236 37.0412 5.3453 37.3079 6.57826 38.5079Z" fill="#804000"/>
<path d="M49.4569 60.5078C50.4158 61.7078 51.5118 62.2411 51.7858 61.9745C52.7447 61.0411 50.8268 58.5078 49.1828 58.5078C48.3609 58.5078 48.3609 59.3078 49.4569 60.5078Z" fill="#804000"/>
<path d="M7.26308 77.4411C6.30415 78.3745 5.61914 80.7745 5.61914 82.7742C5.61914 87.0412 9.45498 89.1742 17.1267 89.1742C20.5516 89.1742 21.5106 88.6412 21.6476 86.5082C21.7845 84.7742 21.3736 84.1082 20.4146 84.6412C19.3186 85.3082 19.1817 84.7742 19.7296 83.3082C21.6476 78.3745 11.3729 73.4411 7.26308 77.4411ZM16.3048 79.0411C18.9077 80.6411 18.2227 83.8412 14.9349 85.3082C12.1949 86.3742 12.3319 86.5082 15.8938 85.8412C19.0447 85.1742 19.5927 85.3082 18.3597 86.5082C17.4008 87.5742 15.2088 87.7082 12.6059 87.1742C8.77007 86.3742 8.35908 85.8412 8.633 81.8412C8.90703 78.2411 9.45497 77.5745 11.7839 77.8411C13.4279 77.9745 15.4828 78.5078 16.3048 79.0411Z" fill="#804000"/>
<path d="M9.729 82.5082C9.729 85.5742 10.277 85.7082 13.9758 83.7082C17.1268 82.1082 16.1678 79.8411 12.3319 79.8411C10.6879 79.8411 9.729 80.7744 9.729 82.5082ZM13.8389 81.7082C13.8389 82.1082 13.2909 82.7742 12.4689 83.1742C11.7839 83.5742 11.0989 83.3082 11.0989 82.6412C11.0989 81.8412 11.7839 81.1742 12.4689 81.1742C13.2909 81.1742 13.8389 81.4412 13.8389 81.7082Z" fill="#804000"/>
<path d="M89.8714 6.24108C81.2407 11.5744 76.4455 20.3744 74.1162 35.5744C72.0616 47.9745 73.9796 60.2411 79.5967 71.3078C84.3909 80.9082 90.1447 85.1742 98.0911 85.1742C102.474 85.1742 104.256 84.2412 109.188 79.1745C117.818 70.5078 121.243 58.7745 120.421 41.0411C119.873 29.7078 119.188 26.7744 115.353 19.3078C108.639 5.97438 98.6387 0.907778 89.8714 6.24108ZM100.557 8.24108C100.146 8.90778 100.83 9.17438 101.927 8.90778C104.393 8.50778 114.12 18.3744 113.023 20.1078C112.612 20.7744 111.105 20.9078 109.735 20.5078C108.366 20.1078 106.858 20.3744 106.447 21.0411C105.351 22.6411 108.366 27.8411 110.283 27.8411C110.968 27.8411 110.421 26.6411 109.05 25.1744C106.173 22.1078 107.269 19.9744 110.421 22.5078C113.16 24.6411 113.023 29.1744 110.283 29.1744C109.188 29.1744 108.639 29.7078 109.05 30.5078C110.557 32.9078 113.298 31.8411 114.804 28.1078C115.626 26.1078 116.311 25.4411 116.448 26.6411C116.722 29.9744 113.16 33.7078 110.557 32.7744C107.817 31.7078 103.707 23.0411 104.804 20.3744C105.215 19.3078 106.995 18.5078 108.639 18.3744H111.79L108.639 17.0411C106.858 16.3744 102.885 16.2411 99.735 16.7744C96.5838 17.3078 93.4326 17.5744 92.8849 17.4411C92.1996 17.3078 92.063 17.7078 92.6106 18.5078C93.0216 19.1744 92.6106 19.5744 91.652 19.4411C90.6934 19.1744 90.2824 19.1744 90.6934 19.4411C91.1043 19.7078 91.241 21.4411 90.83 23.1744C90.5557 25.0411 89.7337 26.1078 89.0494 25.7078C88.3641 25.3078 87.8164 25.7078 87.8164 26.5078C87.8164 27.3078 87.1311 27.5744 86.1725 27.0411C85.2129 26.5078 85.0762 26.6411 85.6238 27.5744C86.1725 28.3744 85.7615 33.0411 84.8019 37.9744C83.7066 44.2411 83.5689 47.1744 84.5286 47.4411C85.3505 47.7078 85.7615 49.3078 85.4872 51.0411C85.0762 52.7745 86.1725 57.0411 87.6788 60.5078C89.3227 64.1078 90.2824 67.1745 89.8714 67.5745C89.4604 67.9745 89.1861 67.5745 89.1861 66.6411C89.1861 65.7078 88.5007 65.4411 87.5421 65.9745C86.5835 66.5078 86.4458 66.3745 86.9945 65.4411C87.6788 64.3745 87.1311 64.1078 85.6238 64.7745C83.8432 65.4411 83.7066 65.8411 84.9395 66.2411C86.1725 66.6411 86.3092 67.1745 85.2129 67.7078C84.2542 68.3745 84.2542 69.9745 84.9395 72.5078C85.6238 74.7745 86.3092 75.7078 86.3092 74.6411C86.4458 73.1745 86.8568 73.1745 88.5007 74.5078C89.7337 75.5745 90.5557 75.7078 90.5557 74.7745C90.5557 73.9745 89.3227 72.5078 87.6788 71.4411C85.6238 69.9745 85.3505 69.1745 86.5835 68.3745C87.6788 67.8411 89.4604 68.7745 91.5153 71.0411C95.3508 75.3078 95.3509 76.2411 92.3373 79.3078C90.1447 81.3082 89.7337 81.3082 86.0348 77.1745C83.7066 74.5078 82.3359 71.8411 82.6103 69.8411C82.7469 68.1078 81.925 65.7078 80.692 64.2411C77.9528 61.3078 74.8016 53.9745 76.8565 55.1745C77.8151 55.8411 77.9528 54.7745 77.2675 52.2411C75.4869 46.1078 76.5821 28.7744 78.6371 30.1078C79.1857 30.3744 79.3224 29.1744 78.9114 27.4411C78.2261 24.7744 79.0481 23.0411 82.8846 19.0411C85.6238 16.2411 87.8164 14.5078 87.8164 15.3078C87.8164 15.9744 87.1311 17.3078 86.1725 18.2411C83.5689 20.7744 85.6238 20.1078 92.063 16.5078C96.3095 14.1078 96.9948 13.3078 94.5289 13.8411C90.008 14.9078 86.7201 11.7078 89.7337 9.30778C91.3776 7.97438 91.5153 8.10778 90.9667 10.3744C90.419 12.2411 90.83 13.1744 92.1996 13.1744C93.7069 13.1744 94.1179 12.2411 93.7069 9.84108C93.0216 6.90778 93.4326 6.64108 97.1314 6.90778C99.3241 7.04108 100.968 7.70778 100.557 8.24108ZM102.749 25.8411C103.982 29.0411 104.804 36.6411 104.804 44.5078C104.94 55.5745 104.393 58.7745 102.063 63.1745C98.5021 69.7078 95.6252 70.5078 92.3373 65.7078C88.7751 60.3745 88.7751 32.2411 92.3373 24.7744C95.6252 17.8411 100.008 18.2411 102.749 25.8411ZM88.7751 30.7744C88.3641 31.8411 87.9531 31.4411 87.9531 29.9744C87.8165 28.5078 88.2274 27.7078 88.6384 28.2411C89.0494 28.6411 89.1861 29.8411 88.7751 30.7744ZM116.037 37.7078C114.393 40.2411 114.256 41.9744 115.078 44.3744C116.174 47.0411 115.9 47.7078 113.709 48.2411C111.516 48.7745 111.105 48.2411 111.243 44.7744C111.379 42.3744 110.968 39.0411 110.557 37.1744L109.599 33.8411L111.516 37.0411C112.749 39.0411 113.845 39.7078 114.393 38.6411C114.942 37.8411 114.667 37.1744 113.982 37.1744C113.16 37.1744 112.476 36.6411 112.476 35.8411C112.476 35.1744 113.434 34.9078 114.531 35.3078C115.626 35.8411 116.585 35.4411 116.585 34.3744C116.585 33.4411 116.996 33.1744 117.407 33.5744C117.955 34.1078 117.27 35.9744 116.037 37.7078ZM87.4055 37.4411C86.9945 38.5078 86.5835 38.1078 86.5835 36.6411C86.4458 35.1744 86.8568 34.3744 87.2678 34.9078C87.6788 35.3078 87.8164 36.5078 87.4055 37.4411ZM109.735 42.5078C109.735 44.3744 109.188 46.5078 108.639 47.4411C108.091 48.2411 107.68 45.9744 107.68 42.5078C107.68 39.0411 108.091 36.7744 108.639 37.5744C109.188 38.5078 109.735 40.6411 109.735 42.5078ZM118.914 44.7744C118.503 46.1078 118.229 45.0411 118.229 42.5078C118.229 39.9744 118.503 38.9078 118.914 40.1078C119.188 41.4411 119.188 43.5744 118.914 44.7744ZM116.311 50.9078C117.407 52.2411 116.996 52.6411 114.12 52.5078C111.243 52.5078 109.872 53.5745 108.091 57.1745C106.584 60.1078 105.625 60.9078 105.625 59.4411C105.625 57.3078 112.476 49.1745 114.256 49.1745C114.667 49.1745 115.489 49.9745 116.311 50.9078ZM115.489 59.7078C115.763 61.9745 115.763 63.5745 115.353 63.4411C113.845 63.0411 107.817 67.8411 108.777 68.6411C109.324 69.1745 110.968 68.5078 112.338 67.3078C114.942 65.0411 114.942 65.0411 114.667 67.4411C114.393 68.7745 113.709 69.8411 113.023 69.9745C112.338 69.9745 110.01 70.7745 107.955 71.5745C103.16 73.5745 98.7754 73.5745 96.0362 71.7078C94.5289 70.6411 95.0765 70.5078 98.3644 71.1745C100.694 71.5745 103.023 71.4411 103.434 70.6411C103.982 69.8411 105.351 69.5745 106.722 69.9745C108.091 70.5078 108.502 70.2411 107.68 69.5745C106.995 69.0411 106.173 67.1745 106.036 65.7078C105.762 63.3078 106.311 62.9078 108.502 63.4411C110.146 63.9745 111.927 63.4411 112.612 62.3745C114.256 59.8411 114.12 57.1745 112.476 57.1745C111.79 57.1745 111.516 57.9745 111.927 59.0411C112.749 61.1745 110.283 63.1745 109.188 61.3078C107.817 59.1745 109.872 55.8411 112.476 55.8411C114.12 55.8411 115.078 57.0411 115.489 59.7078ZM103.023 68.2411C101.652 69.4411 101.516 69.3078 102.338 67.4411C102.749 66.1078 103.571 65.4411 103.982 65.8411C104.393 66.2411 103.982 67.3078 103.023 68.2411ZM110.968 74.2411C108.913 77.4411 101.241 82.5082 98.6387 82.5082C97.5424 82.3742 98.9131 81.4412 101.516 80.2411C104.393 79.0411 105.625 77.9745 104.529 77.5745C103.434 77.1745 101.927 77.5745 101.105 78.3745C100.283 79.1745 98.5021 79.8411 97.1314 79.8411C94.9399 79.8411 94.8032 79.4411 96.0362 77.1745C96.9948 75.4411 98.7754 74.5078 101.241 74.6411C105.762 74.7745 109.324 73.9745 110.557 72.7745C112.338 71.0411 112.476 71.8411 110.968 74.2411Z" fill="#804000"/>
<path d="M94.6653 10.3744C94.6653 11.7077 99.5971 13.1744 100.693 12.2411C101.104 11.8411 101.104 10.9077 100.693 10.3744C99.7338 8.77444 94.6653 8.77444 94.6653 10.3744Z" fill="#804000"/>
<path d="M103.297 11.7078C103.434 13.1745 104.392 14.5078 105.352 14.5078C106.996 14.5078 106.996 14.1078 105.489 12.1078C104.53 10.9078 103.57 9.57449 103.297 9.30779C103.159 9.04119 103.159 10.1078 103.297 11.7078Z" fill="#804000"/>
<path d="M82.3357 21.1744C81.2404 21.8411 80.2807 24.3744 80.1441 26.7744C79.8697 29.1744 79.0478 33.8411 78.0891 37.0411C76.8562 41.5744 76.7195 44.2411 77.9525 48.6411C78.9111 51.8411 79.1854 55.3077 78.7745 56.3744C78.0891 58.2411 82.199 65.8411 83.2953 64.6411C83.7063 64.3744 82.8843 62.5077 81.5137 60.6411C80.2807 58.6411 79.5964 56.7744 80.1441 56.2411C80.5551 55.8411 80.966 56.2411 80.966 57.3077C80.966 58.9077 81.2404 58.7744 82.4733 57.1744C83.5686 55.5744 83.7063 55.7077 83.021 57.9744C82.61 59.7077 83.1576 61.4411 84.3906 62.5077C86.0345 63.8411 86.4455 63.8411 86.4455 61.9744C86.4455 60.7744 85.7612 59.8411 84.9392 59.8411C84.2539 59.8411 83.8429 59.3077 84.2539 58.6411C84.6649 58.1077 84.1173 54.2411 83.1576 50.3744C79.8697 37.9744 79.4588 33.4411 81.1027 32.5077C82.199 31.8411 82.3357 32.3744 81.6514 34.3744C81.1027 35.9744 81.377 37.1744 82.199 37.1744C83.7063 37.1744 84.3906 33.5744 83.8429 28.6411C83.7063 27.3077 84.9392 25.3077 86.4455 24.2411C87.9528 23.1744 89.1858 21.7077 89.1858 20.9077C89.1858 20.1077 87.6785 20.7744 85.7612 22.5077C82.3357 25.5744 80.6917 24.6411 83.9796 21.4411C85.8979 19.5744 85.2126 19.4411 82.3357 21.1744ZM81.5137 51.1744C81.9247 54.5077 81.9247 55.5744 81.1027 53.8411C79.4588 49.9744 78.0891 41.4411 79.4587 43.8411C80.1441 44.9077 80.966 48.2411 81.5137 51.1744Z" fill="#804000"/>
<path d="M91.925 75.7078C91.925 76.7745 90.8297 77.1745 89.1857 76.7745C87.6784 76.3745 86.7198 76.6412 87.2675 77.3078C87.6785 77.9745 88.7748 78.5078 89.87 78.5078C92.0626 78.5078 93.9799 76.1078 92.7469 74.9078C92.3359 74.3745 91.925 74.7745 91.925 75.7078Z" fill="#804000"/>
<path d="M98.0911 77.1745C97.6801 77.9745 98.2277 78.1079 99.324 77.7079C101.79 76.7745 102.201 75.8412 100.283 75.8412C99.4607 75.8412 98.5021 76.3745 98.0911 77.1745Z" fill="#804000"/>
<path d="M238.923 11.841C239.47 14.241 239.881 16.641 239.881 17.3077C239.881 17.9744 243.443 18.5077 247.827 18.5077C263.171 18.5077 275.774 24.241 277.692 32.1077L278.514 35.841H268.103H257.69V41.5744V47.3077L268.787 47.1744L279.883 47.041L279.061 51.5744C277.281 62.3744 269.198 67.3077 250.703 68.641L239.196 69.5744L239.334 74.3744C239.47 78.7744 239.881 79.1744 243.854 79.5744C249.608 80.1077 269.061 76.3744 276.322 73.3077C293.995 65.7077 296.461 33.441 280.569 17.441C275.226 12.1077 266.459 9.44104 250.292 8.24104L238.101 7.44104L238.923 11.841ZM244.95 12.641C246.457 9.97444 249.471 10.7744 249.471 13.9744C249.471 17.041 242.073 15.5744 241.662 12.3744C241.251 9.97444 241.388 9.97444 242.347 12.5077C243.443 14.9077 243.58 14.9077 244.95 12.641ZM272.486 15.441C276.459 17.3077 279.472 19.1744 279.061 19.441C278.788 19.7077 280.294 21.841 282.349 24.1077C287.008 29.041 288.241 32.7744 285.501 33.7077C283.72 34.3744 283.857 34.9077 286.048 36.9077C287.419 38.1077 287.967 38.7744 287.281 38.1077C284.953 36.5077 281.527 37.041 277.966 39.841C276.048 41.1744 273.993 41.9744 273.445 41.441C272.76 40.9077 272.76 41.3077 273.308 42.241C274.267 43.7077 274.815 43.5744 276.733 41.9744C279.336 39.7077 281.802 39.1744 282.76 40.7744C283.035 41.441 283.035 41.041 282.898 40.1077C282.624 39.3077 283.171 38.5077 283.857 38.5077C284.815 38.5077 285.09 39.9744 284.815 41.7077C284.268 43.9744 284.679 44.7744 286.048 44.241C287.008 43.841 287.419 43.041 287.008 42.3744C286.597 41.7077 286.87 41.1744 287.556 41.1744C288.241 41.1744 288.652 43.441 288.378 46.1077C287.967 53.3077 287.967 53.441 286.597 52.641C285.912 52.241 285.637 50.7744 286.048 49.441C286.459 47.841 285.912 46.9077 284.679 46.9077C283.72 46.9077 282.76 47.7077 282.76 48.641C282.76 49.5744 283.446 49.9744 284.131 49.5744C284.953 49.1744 285.09 49.441 284.542 50.241C284.131 51.041 284.542 52.5077 285.637 53.5744C286.87 54.641 287.145 56.1077 286.459 57.3077C285.364 58.7744 285.09 58.7744 284.542 57.1744C282.76 51.7077 282.487 51.7077 283.171 57.441C283.857 62.5077 283.446 64.1077 281.254 66.241C278.103 69.3077 270.158 71.841 263.582 71.841C261.252 71.841 258.923 72.241 258.512 72.9077C258.239 73.441 260.43 73.7077 263.582 73.5744L269.336 73.3077L263.855 74.3744C260.841 75.041 257.828 75.3077 257.279 74.9077C256.732 74.5077 255.224 75.041 254.129 75.9744C253.033 76.7744 251.8 77.1744 251.252 76.641C250.841 76.241 251.252 75.841 252.347 75.841C253.991 75.841 253.991 75.5744 252.211 74.5077C250.978 73.841 249.882 73.841 249.334 74.641C248.923 75.3077 246.868 76.241 244.95 76.641C241.936 77.041 241.251 76.7744 241.251 74.641C241.251 73.1744 241.799 71.7077 242.484 71.3077C243.169 70.7744 243.443 71.841 243.032 73.441L242.347 76.5077L244.539 73.441C246.457 71.041 247.416 70.7744 249.745 71.9744C251.663 73.041 253.444 73.041 255.499 72.1077C257.006 71.3077 261.527 70.3744 265.499 69.9744C269.472 69.5744 274.13 68.5077 275.774 67.5744C277.555 66.641 279.472 66.1077 280.021 66.241C280.705 66.3744 280.843 65.9744 280.294 65.1744C279.747 64.241 278.377 64.5077 276.459 65.841C273.034 68.1077 271.39 68.3744 271.39 66.5077C271.39 65.7077 272.623 65.1744 274.13 65.1744C275.911 65.1744 277.555 63.5744 278.925 60.241C281.391 54.641 282.349 45.3077 280.705 44.3744C280.021 43.9744 280.021 42.9077 280.569 42.1077C280.98 41.1744 280.294 41.441 278.788 42.7744C277.007 44.241 273.993 44.9077 268.65 44.7744C261.938 44.5077 261.116 44.1077 260.705 41.441C260.43 39.841 260.841 38.5077 261.663 38.5077C262.349 38.5077 262.76 39.7077 262.485 41.3077C262.074 43.3077 262.349 43.7077 263.582 42.9077C264.54 42.241 266.595 41.841 268.239 41.9744C269.883 41.9744 270.979 41.5744 270.568 41.041C270.157 40.3744 268.376 40.1077 266.595 40.3744C264.54 40.7744 263.582 40.3744 263.993 39.441C264.266 38.5077 266.048 37.841 267.828 37.841C269.609 37.841 270.842 38.3744 270.431 38.9077C269.472 40.3744 276.048 39.041 279.336 37.041C281.938 35.441 281.938 35.1744 280.021 32.241C278.788 30.5077 278.24 28.7744 278.788 28.241C279.199 27.841 279.61 28.1077 279.61 29.041C279.61 30.241 280.158 30.241 281.527 28.9077C283.72 26.9077 283.035 24.641 280.705 25.9744C279.883 26.5077 279.61 26.241 280.021 25.5744C280.569 24.7744 280.021 23.441 278.925 22.5077C277.829 21.5744 277.281 20.241 277.829 19.441C278.24 18.7744 277.966 18.5077 277.144 18.9077C275.637 19.9744 275.637 22.1077 277.418 25.1744C278.103 26.241 277.007 25.5744 274.952 23.441C272.897 21.441 269.883 19.841 268.239 19.841C265.362 19.7077 265.362 19.5744 267.692 17.9744C269.883 16.241 269.883 16.1077 267.828 15.3077C266.459 14.7744 264.815 15.041 263.993 15.841C262.896 16.9077 263.307 17.041 265.226 16.5077C267.417 15.841 267.554 15.841 265.91 16.9077C264.54 17.9744 263.444 17.9744 262.211 16.9077C261.252 16.241 259.061 15.841 257.279 16.3744C254.951 16.9077 253.991 16.5077 253.991 15.041C253.991 13.441 255.088 13.1744 258.923 13.7077L263.855 14.3744L259.061 12.5077L254.266 10.641L259.745 11.3077C262.76 11.841 268.514 13.7077 272.486 15.441ZM251.8 14.7744C251.389 15.841 250.978 15.441 250.978 13.9744C250.841 12.5077 251.252 11.7077 251.663 12.241C252.074 12.641 252.211 13.841 251.8 14.7744Z" fill="#804000"/>
<path d="M271.389 18.5078C271.389 19.1744 272.075 19.8411 272.897 19.8411C273.581 19.8411 273.855 19.1744 273.444 18.5078C273.033 17.7078 272.348 17.1744 271.937 17.1744C271.664 17.1744 271.389 17.7078 271.389 18.5078Z" fill="#804000"/>
<path d="M283.582 28.1078C282.76 30.9078 282.897 33.1745 283.719 33.1745C284.404 33.1745 284.815 31.9745 284.677 30.5078C284.541 28.2411 283.993 27.0411 283.582 28.1078Z" fill="#804000"/>
<path d="M281.254 61.1745C281.254 63.0412 281.527 63.7079 281.938 62.7745C282.213 61.9745 282.213 60.3745 281.938 59.4412C281.527 58.6412 281.254 59.3079 281.254 61.1745Z" fill="#804000"/>
<path d="M246.045 73.3078C245.497 74.1078 245.361 74.9078 245.772 75.3078C246.045 75.7078 246.73 75.0411 247.141 73.8411C248.1 71.5745 247.278 71.1745 246.045 73.3078Z" fill="#804000"/>
<path d="M155.628 38.3745C157.135 39.0412 159.738 39.7078 161.382 39.7078C163.026 39.8412 165.219 40.6412 166.177 41.5745C167.136 42.6412 168.917 43.7078 170.013 44.1078C171.52 44.5078 170.698 45.5745 167.273 47.5745C160.56 51.5745 157.272 51.3078 162.204 47.1745C164.259 45.3078 165.63 43.8412 165.081 43.8412C164.533 43.8412 162.615 45.0412 160.971 46.6412L158.094 49.3078L155.081 44.9078C153.573 42.5078 152.204 41.0412 152.204 41.7078C152.204 42.5078 153.573 44.9078 155.217 47.3078C157.821 50.9078 159.465 51.8412 164.944 52.5078C168.643 53.0412 171.931 53.0412 172.342 52.6412C172.89 52.2412 172.068 51.8412 170.561 51.8412C168.095 51.7078 168.095 51.7078 170.424 50.3745C173.712 48.5078 180.014 49.9745 182.069 53.1745C183.986 56.2412 183.85 56.3745 179.054 54.5078C177.137 53.8412 175.493 53.7078 175.493 54.3745C175.493 55.0412 177.274 55.8412 179.465 56.2412C181.931 56.7745 184.397 58.6412 186.179 61.4412C189.467 66.7745 190.973 77.8412 188.507 79.8412C187.685 80.5078 186.59 80.9082 186.315 80.6412C186.041 80.2412 185.082 81.5742 184.124 83.3082C182.753 86.1082 182.891 86.9082 185.082 88.1082C187.274 89.5742 187.274 89.8412 185.219 91.8412C181.247 95.8412 177.137 95.9742 173.986 92.1082L171.109 88.5082L175.766 87.7082L180.287 86.9082L174.808 86.6412C171.794 86.6412 167.136 85.1742 164.533 83.5742C161.931 81.9742 158.505 80.5078 156.999 80.3745C155.492 80.2412 152.615 79.8412 150.56 79.4412C148.368 79.0412 146.724 79.1745 146.724 79.7078C146.724 80.2412 145.08 81.4412 143.162 82.2412C141.244 83.1742 140.011 83.3082 140.559 82.5082C140.97 81.8412 140.696 81.1742 140.011 81.1742C139.189 81.1742 138.504 81.7082 138.504 82.2412C138.504 82.9082 136.586 83.0412 134.257 82.7742C131.243 82.3742 130.147 82.6412 130.832 83.7082C131.38 84.5082 131.243 85.1742 130.421 85.1742C129.736 85.1742 128.777 84.3742 128.503 83.4412C127.955 82.1082 127.681 82.1082 127.681 83.4412C127.544 85.7082 121.791 85.5742 118.639 83.3082C116.174 81.5742 116.174 81.3082 121.105 76.5078C125.901 71.8412 130.01 70.7745 126.175 75.1745C125.215 76.2412 124.942 77.1745 125.49 77.1745C126.037 77.1745 127.27 76.3745 128.092 75.3078C129.325 73.7078 131.107 73.7078 138.23 74.7745C143.573 75.7078 147.408 75.7078 148.094 75.0412C148.916 74.2412 148.505 73.7078 146.997 73.5745C145.765 73.4412 140.148 72.2412 134.668 71.0412C124.942 68.7745 124.668 68.7745 120.969 71.4412C115.626 75.1745 111.379 83.3082 113.434 85.3082C116.448 88.2412 129.052 88.2412 142.34 85.3082C154.67 82.6412 155.081 82.6412 160.834 85.0412C164.67 86.6412 169.328 90.6412 174.808 96.9082C179.329 102.108 183.302 106.108 183.575 105.841C183.85 105.574 183.302 103.441 182.48 101.041C180.562 95.8412 180.973 95.4412 185.63 97.0412C189.603 98.5082 190.7 96.5082 187.548 93.4412C185.63 91.5742 187.001 91.4412 193.028 93.0412C199.33 94.9082 198.508 92.9082 191.111 88.9082L184.808 85.5742L189.056 82.1082C192.755 79.1745 193.85 78.9078 197.686 79.9745C204.81 81.8412 206.317 81.5742 204.125 78.9078C202.481 76.9078 202.481 76.7745 204.673 77.5745C206.454 78.2412 207.001 77.9745 206.59 76.9078C206.317 75.9745 204.399 75.3078 202.344 75.4412C200.426 75.5745 198.782 75.1745 198.782 74.3745C198.782 73.7078 199.467 73.3078 200.426 73.4412C201.248 73.7078 202.481 72.3745 203.029 70.5078C204.399 65.8412 204.399 48.9078 203.029 46.7745C202.344 45.7078 202.207 47.7078 202.618 51.7078C203.303 59.5745 201.659 74.2412 200.289 71.9745C199.604 71.0412 198.645 71.5745 197.412 73.8412C194.535 79.1745 191.933 78.1078 191.933 71.4412C191.933 68.3745 190.973 64.3745 189.878 62.5078C188.781 60.6412 187.001 56.9078 185.768 54.2412C183.986 50.5078 181.795 48.5078 175.904 45.8412C170.15 43.0412 168.78 41.8412 170.15 40.9078C171.657 39.8412 171.52 39.7078 169.876 40.2412C168.643 40.6412 167.136 40.5078 166.451 39.8412C165.766 39.3078 162.478 38.3745 159.054 37.9745C154.806 37.4412 153.711 37.5745 155.628 38.3745Z" fill="#804000"/>
<path d="M148.231 41.9744C148.231 43.4411 148.642 43.8411 149.053 42.7744C149.464 41.8411 149.326 40.6411 148.916 40.2411C148.505 39.7078 148.094 40.5078 148.231 41.9744Z" fill="#804000"/>
<path d="M337.97 55.5745C337.696 56.1079 337.832 58.6412 338.518 61.1745L339.614 65.8412L339.751 60.1079C339.887 54.6412 339.34 53.4412 337.97 55.5745Z" fill="#804000"/>
<path d="M143.298 78.5078C143.709 79.1744 144.395 79.8411 144.806 79.8411C145.08 79.8411 145.353 79.1744 145.353 78.5078C145.353 77.7078 144.669 77.1744 143.847 77.1744C143.162 77.1744 142.887 77.7078 143.298 78.5078Z" fill="#804000"/>
<path d="M122.749 79.8411C122.338 80.5078 122.887 81.1742 124.12 81.1742C125.353 81.1742 125.9 80.5078 125.489 79.8411C125.078 79.0411 124.393 78.5078 124.12 78.5078C123.845 78.5078 123.16 79.0411 122.749 79.8411Z" fill="#804000"/>
<path d="M132.75 80.7745C133.572 81.0412 135.216 81.0412 136.176 80.7745C136.998 80.3745 136.313 80.1078 134.394 80.1078C132.477 80.1078 131.792 80.3745 132.75 80.7745Z" fill="#804000"/>
<path d="M320.433 108.774C322.077 109.041 324.543 109.041 325.914 108.774C327.147 108.374 325.776 108.108 322.763 108.241C319.749 108.241 318.653 108.508 320.433 108.774Z" fill="#804000"/>
</svg>
